HIERARCHY
ROOT Hips
{
  OFFSET 0 0 0
  CHANNELS 6 Xposition Yposition Zposition Zrotation Yrotation Xrotation
  JOINT LowerBack
  {
    OFFSET 0 20.6881 -0.73152
    CHANNELS 3 Zrotation Xrotation Yrotation
    JOINT Spine1
    {
      OFFSET 0 11.7043 -0.48768
      CHANNELS 3 Zrotation Xrotation Yrotation
      JOINT Neck
      {
        OFFSET 0 22.1894 -2.19456
        CHANNELS 3 Zrotation Xrotation Yrotation
        JOINT Head
        {
          OFFSET -0.24384 7.07133 1.2192
          CHANNELS 3 Zrotation Xrotation Yrotation
          JOINT leftEye
          {
            OFFSET 4.14528 8.04674 8.04672
            CHANNELS 3 Zrotation Xrotation Yrotation
            End Site
            {
              OFFSET 1 0 0
            }
          }
          JOINT rightEye
          {
            OFFSET -3.6576 8.04674 8.04672
            CHANNELS 3 Zrotation Xrotation Yrotation
            End Site
            {
              OFFSET 1 0 0
            }
          }
        }
      }
      JOINT RightShoulder
      {
        OFFSET -2.68224 19.2634 -4.8768
        CHANNELS 3 Zrotation Xrotation Yrotation
        JOINT RightArm
        {
          OFFSET -8.77824 -1.95073 1.46304
          CHANNELS 3 Zrotation Xrotation Yrotation
          JOINT RightForeArm
          {
            OFFSET -28.1742 -1.7115 0.48768
            CHANNELS 3 Zrotation Xrotation Yrotation
            JOINT RightHand
            {
              OFFSET -22.5879 0.773209 7.07136
              CHANNELS 3 Zrotation Xrotation Yrotation
              JOINT RThumb
              {
                OFFSET -1.2192 -0.487915 3.41376
                CHANNELS 3 Zrotation Xrotation Yrotation
                JOINT rThumb2
                {
                  OFFSET -3.37035 -0.52449 3.41376
                  CHANNELS 3 Zrotation Xrotation Yrotation
                  End Site
                  {
                    OFFSET -1.78271 -1.18214 1.43049
                  }
                }
              }
              JOINT rIndex1
              {
                OFFSET -7.75947 0.938293 5.60832
                CHANNELS 3 Zrotation Xrotation Yrotation
                JOINT rIndex2
                {
                  OFFSET -2.54057 -0.884171 1.56538
                  CHANNELS 3 Zrotation Xrotation Yrotation
                  End Site
                  {
                    OFFSET -1.62519 -0.234802 1.16502
                  }
                }
              }
              JOINT rMid1
              {
                OFFSET -8.24714 1.18213 3.41376
                CHANNELS 3 Zrotation Xrotation Yrotation
                JOINT rMid2
                {
                  OFFSET -3.10165 -0.590103 1.0647
                  CHANNELS 3 Zrotation Xrotation Yrotation
                  End Site
                  {
                    OFFSET -2.48547 -0.328903 0.83742
                  }
                }
              }
              JOINT rRing1
              {
                OFFSET -8.82822 0.546677 1.51678
                CHANNELS 3 Zrotation Xrotation Yrotation
                JOINT rRing2
                {
                  OFFSET -2.60934 -0.819778 -0.0198488
                  CHANNELS 3 Zrotation Xrotation Yrotation
                  End Site
                  {
                    OFFSET -2.33842 -0.294052 0.168128
                  }
                }
              }
              JOINT rPinky1
              {
                OFFSET -8.27202 -0.0477905 -0.4584
                CHANNELS 3 Zrotation Xrotation Yrotation
                JOINT rPinky2
                {
                  OFFSET -1.82734 -0.647385 -0.700984
                  CHANNELS 3 Zrotation Xrotation Yrotation
                  End Site
                  {
                    OFFSET -1.69225 -0.51767 -0.607171
                  }
                }
              }
            }
          }
        }
      }
      JOINT LeftShoulder
      {
        OFFSET 2.68224 19.2634 -4.8768
        CHANNELS 3 Zrotation Xrotation Yrotation
        JOINT LeftArm
        {
          OFFSET 8.77824 -1.95073 1.46304
          CHANNELS 3 Zrotation Xrotation Yrotation
          JOINT LeftForeArm
          {
            OFFSET 28.1742 -1.7115 0.48768
            CHANNELS 3 Zrotation Xrotation Yrotation
            JOINT LeftHand
            {
              OFFSET 22.5879 0.773209 7.07136
              CHANNELS 3 Zrotation Xrotation Yrotation
              JOINT LThumb
              {
                OFFSET 1.2192 -0.487915 3.41376
                CHANNELS 3 Zrotation Xrotation Yrotation
                JOINT lThumb2
                {
                  OFFSET 3.37035 -0.52449 3.41376
                  CHANNELS 3 Zrotation Xrotation Yrotation
                  End Site
                  {
                    OFFSET 1.78271 -1.18214 1.43049
                  }
                }
              }
              JOINT lIndex1
              {
                OFFSET 7.75947 0.938293 5.60832
                CHANNELS 3 Zrotation Xrotation Yrotation
                JOINT lIndex2
                {
                  OFFSET 2.54057 -0.884171 1.56538
                  CHANNELS 3 Zrotation Xrotation Yrotation
                  End Site
                  {
                    OFFSET 1.62519 -0.234802 1.16502
                  }
                }
              }
              JOINT lMid1
              {
                OFFSET 8.24714 1.18213 3.41376
                CHANNELS 3 Zrotation Xrotation Yrotation
                JOINT lMid2
                {
                  OFFSET 3.10165 -0.590103 1.0647
                  CHANNELS 3 Zrotation Xrotation Yrotation
                  End Site
                  {
                    OFFSET 2.48547 -0.328903 0.83742
                  }
                }
              }
              JOINT lRing1
              {
                OFFSET 8.82822 0.546677 1.51678
                CHANNELS 3 Zrotation Xrotation Yrotation
                JOINT lRing2
                {
                  OFFSET 2.60934 -0.819778 -0.0198488
                  CHANNELS 3 Zrotation Xrotation Yrotation
                  End Site
                  {
                    OFFSET 2.33842 -0.294052 0.168128
                  }
                }
              }
              JOINT lPinky1
              {
                OFFSET 8.27202 -0.0477905 -0.4584
                CHANNELS 3 Zrotation Xrotation Yrotation
                JOINT lPinky2
                {
                  OFFSET 1.82734 -0.647385 -0.700984
                  CHANNELS 3 Zrotation Xrotation Yrotation
                  End Site
                  {
                    OFFSET 1.69225 -0.51767 -0.607171
                  }
                }
              }
            }
          }
        }
      }
    }
  }
  JOINT RHipJoint
  {
    OFFSET -8.77824 4.35084 1.2192
    CHANNELS 3 Zrotation Xrotation Yrotation
    JOINT RightUpLeg
    {
      OFFSET 0 -1.70687 -2.19456
      CHANNELS 3 Zrotation Xrotation Yrotation
      JOINT RightLeg
      {
        OFFSET 0 -36.8199 0.73152
        CHANNELS 3 Zrotation Xrotation Yrotation
        JOINT RightFoot
        {
          OFFSET 0.73152 -45.1104 -5.12064
          CHANNELS 3 Zrotation Xrotation Yrotation
          End Site
          {
            OFFSET -1.1221 -3.69964 12.103
          }
        }
      }
    }
  }
  JOINT LHipJoint
  {
    OFFSET 8.77824 4.35084 1.2192
    CHANNELS 3 Zrotation Xrotation Yrotation
    JOINT LeftUpLeg
    {
      OFFSET 0 -1.70687 -2.19456
      CHANNELS 3 Zrotation Xrotation Yrotation
      JOINT LeftLeg
      {
        OFFSET 0 -36.8199 0.73152
        CHANNELS 3 Zrotation Xrotation Yrotation
        JOINT LeftFoot
        {
          OFFSET -0.73152 -45.1104 -5.12064
          CHANNELS 3 Zrotation Xrotation Yrotation
          End Site
          {
            OFFSET 1.1221 -3.69964 12.103
          }
        }
      }
    }
  }
}
MOTION
Frames:	4
Frame Time:	0.00833333
52.1221 85.1527 1.66166 0.0 0.0 0.0 0.451115 -0.0026513 0.0129078 0.124551 -0.00414964 0.02158 4.55174e-15 0.0 4.34841e-17 1.37876e-14 3.18055e-15 1.21134e-16 -0.0 0.0 0.0 -0.0 0.0 0.0 2.38418e-15 2.71776e-18 1.98785e-16 4.96854e-14 -1.73937e-16 1.78906e-15 8.43543e-13 -2.47884e-13 -1.59028e-14 9.57795e-12 2.62619e-13 1.20861e-13 2.26047e-11 3.58558e-14 2.73528e-13 3.90338e-11 6.36111e-14 4.60385e-13 2.26062e-11 3.49861e-14 2.63986e-13 7.73091 5.47488 0.417314 2.26039e-11 3.598e-14 2.67167e-13 2.90554 0.965183 0.102902 2.26073e-11 3.63776e-14 2.68757e-13 10.2786 0.731801 0.0259123 2.26018e-11 3.81667e-14 2.73528e-13 2.22167 -0.733487 -0.20892 2.18801e-15 2.71776e-18 -1.49089e-16 4.69565e-14 2.48481e-17 0.0 8.33156e-13 2.5186e-13 2.54444e-14 9.59127e-12 -2.46692e-13 1.11319e-13 2.26177e-11 1.31294e-14 2.73528e-13 3.90711e-11 2.22639e-14 4.76288e-13 2.26137e-11 1.27222e-14 2.83069e-13 -7.73091 5.47488 -0.417314 2.26183e-11 1.25234e-14 2.70347e-13 -2.90554 0.965183 -0.102902 2.2615e-11 1.28216e-14 2.73528e-13 -10.2786 0.731801 -0.0259123 2.26265e-11 1.70955e-14 2.70347e-13 -2.22167 -0.733487 0.20892 -2.03217e-16 0.0 -3.88251e-19 0.825561 -4.24952 -0.0689674 -0.00260459 2.14565 -0.0170962 -0.486224 2.10403 0.0980477 2.03217e-16 0.0 3.88251e-19 -0.137867 -2.5009 0.0253442 0.00751442 -1.02177 0.0650234 0.479174 3.52276 -0.125841
51.5293 84.6124 2.27685 -0.9193 -4.1156 -3.465 0.848109 2.38931 -0.712947 0.190019 0.122141 -0.171344 -1.05209 0.833989 -1.29441 1.6802 -7.05265 -1.97111 -0.0 0.0 0.0 -0.0 0.0 0.0 -2.48255e-15 -1.41861e-14 3.90119e-14 21.785 9.28034 0.716858 -6.51687 -3.62657 9.35505 0.0429009 -4.59746 -0.638642 -7.92919e-11 2.27678e-10 1.42625e-10 -1.39179e-10 3.97686e-10 2.46051e-10 -7.929e-11 2.27678e-10 1.42617e-10 7.73091 5.47488 0.417314 -7.92928e-11 2.27679e-10 1.42621e-10 2.90554 0.965183 0.102902 -7.92871e-11 2.27679e-10 1.42623e-10 10.2786 0.731801 0.0259123 -7.92951e-11 2.27679e-10 1.42628e-10 2.22167 -0.733487 -0.20892 -2.67593e-15 -1.4187e-14 3.87219e-14 -22.7206 8.68974 -0.377405 6.38252 -3.51468 -9.21607 -0.101935 -7.09708 0.970079 -1.03594e-11 -8.89245e-11 4.06556e-11 -1.90058e-11 -1.55474e-10 6.96544e-11 -1.03628e-11 -8.89241e-11 4.06661e-11 -7.73091 5.47488 -0.417314 -1.0358e-11 -8.89243e-11 4.06533e-11 -2.90554 0.965183 -0.102902 -1.03612e-11 -8.89232e-11 4.06549e-11 -10.2786 0.731801 -0.0259123 -1.03532e-11 -8.892e-11 4.06507e-11 -2.22167 -0.733487 0.20892 -2.03217e-16 0.0 -3.88251e-19 1.58959 -4.93383 1.88935 0.00616264 6.94038 0.0672621 -0.703558 -1.01535 -2.41181 2.03217e-16 0.0 3.88251e-19 -0.776654 -3.06165 -0.899081 -0.00181238 4.43866 -0.0446554 0.83325 0.0864794 4.24439
51.5283 84.5518 2.14111 -0.9276 -4.165 -3.2886 1.33289 4.9041 -1.48931 0.263534 0.266718 -0.3767 -2.12934 1.71142 -2.67589 2.91838 -14.4609 -4.17875 -0.0 0.0 0.0 -0.0 0.0 0.0 -7.6973e-15 -2.96173e-14 8.22565e-14 44.552 19.0482 1.52791 -12.1022 -7.10609 19.3207 -0.0245513 -9.4498 -1.32676 -1.91813e-10 4.81266e-10 3.0197e-10 -3.36011e-10 8.40662e-10 5.20982e-10 -1.9181e-10 4.81267e-10 3.01964e-10 7.73091 5.47488 0.417314 -1.91814e-10 4.81268e-10 3.01968e-10 2.90554 0.965183 0.102902 -1.91806e-10 4.81268e-10 3.01971e-10 10.2786 0.731801 0.0259123 -1.91816e-10 4.81266e-10 3.01976e-10 2.22167 -0.733487 -0.20892 -7.88916e-15 -2.96192e-14 8.20297e-14 -46.6277 17.8164 -0.785452 11.8708 -6.88314 -19.0113 0.0593475 -14.562 2.04208 -4.57692e-11 -1.8629e-10 8.24114e-11 -8.13219e-11 -3.2559e-10 1.41141e-10 -4.5772e-11 -1.86289e-10 8.24229e-11 -7.73091 5.47488 -0.417314 -4.5767e-11 -1.86289e-10 8.24098e-11 -2.90554 0.965183 -0.102902 -4.577e-11 -1.86287e-10 8.24098e-11 -10.2786 0.731801 -0.0259123 -4.57658e-11 -1.86285e-10 8.24046e-11 -2.22167 -0.733487 0.20892 -2.03217e-16 0.0 -3.88251e-19 2.44668 -5.61785 3.95861 -0.000197268 11.9965 0.15865 -1.22903 -4.30119 -5.06689 2.03217e-16 0.0 3.88251e-19 -1.47396 -3.62602 -1.87649 0.0113227 10.2071 -0.162877 1.77666 -3.50235 8.8861
51.5957 84.4788 2.07412 -0.6609 -4.1004 -3.1654 1.82508 7.16864 -2.17985 0.323507 0.374707 -0.557203 -3.04322 2.49686 -3.8865 3.49931 -21.0541 -6.29 -0.0 0.0 0.0 -0.0 0.0 0.0 -1.2216e-14 -4.25636e-14 1.16638e-13 64.5813 27.8224 2.4 -16.1136 -9.72117 28.4533 -0.186466 -13.7854 -1.96642 -2.83085e-10 6.82962e-10 4.27329e-10 -4.95604e-10 1.19293e-09 7.37233e-10 -2.83082e-10 6.82963e-10 4.27323e-10 7.73091 5.47488 0.417314 -2.83086e-10 6.82964e-10 4.27328e-10 2.90554 0.965183 0.102902 -2.83076e-10 6.82964e-10 4.27331e-10 10.2786 0.731801 0.0259123 -2.83089e-10 6.8296e-10 4.27336e-10 2.22167 -0.733487 -0.20892 -1.24038e-14 -4.25663e-14 1.16464e-13 -67.7853 26.0644 -1.24595 15.8637 -9.45452 -28.0089 0.459605 -21.2659 3.09915 -7.63135e-11 -2.668e-10 1.2142e-10 -1.3516e-10 -4.66466e-10 2.08011e-10 -7.63158e-11 -2.66798e-10 1.21432e-10 -7.73091 5.47488 -0.417314 -7.63106e-11 -2.66798e-10 1.21419e-10 -2.90554 0.965183 -0.102902 -7.63136e-11 -2.66795e-10 1.21418e-10 -10.2786 0.731801 -0.0259123 -7.63126e-11 -2.66794e-10 1.21411e-10 -2.22167 -0.733487 0.20892 -2.03217e-16 0.0 -3.88251e-19 3.25836 -6.2782 5.81962 -0.0202272 16.5297 0.244584 -1.96055 -7.19555 -7.48958 2.03217e-16 0.0 3.88251e-19 -2.10862 -4.17947 -2.75136 0.0438895 15.3594 -0.273354 3.1075 -6.6111 13.0728
